<mxfile host="app.diagrams.net" modified="2024-05-02T04:54:45.427Z" agent="Mozilla/5.0 (X11; Linux x86_64) AppleWebKit/537.36 (KHTML, like Gecko) Chrome/122.0.0.0 Safari/537.36" etag="GNi1lYbzdRlP_wwdBqng" version="24.3.1" type="device">
  <diagram name="Page-1" id="6133507b-19e7-1e82-6fc7-422aa6c4b21f">
    <mxGraphModel dx="1434" dy="788" grid="1" gridSize="10" guides="1" tooltips="1" connect="1" arrows="1" fold="1" page="1" pageScale="1" pageWidth="1100" pageHeight="850" background="none" math="0" shadow="0">
      <root>
        <mxCell id="0" />
        <mxCell id="1" parent="0" />
        <mxCell id="k_RupyosA587b6uRsEtS-1" value="&lt;font style=&quot;font-size: 24px;&quot;&gt;Hike matching System&lt;/font&gt;" style="shape=ellipse;html=1;dashed=0;whiteSpace=wrap;aspect=fixed;perimeter=ellipsePerimeter;" vertex="1" parent="1">
          <mxGeometry x="440" y="255" width="170" height="170" as="geometry" />
        </mxCell>
        <mxCell id="k_RupyosA587b6uRsEtS-2" value="&lt;font style=&quot;font-size: 20px;&quot;&gt;Hikers&lt;/font&gt;" style="html=1;dashed=0;whiteSpace=wrap;" vertex="1" parent="1">
          <mxGeometry x="100" y="290" width="190" height="80" as="geometry" />
        </mxCell>
        <mxCell id="k_RupyosA587b6uRsEtS-3" value="&lt;font style=&quot;font-size: 17px;&quot;&gt;Hikers matching process&lt;/font&gt;" style="shape=ellipse;html=1;dashed=0;whiteSpace=wrap;perimeter=ellipsePerimeter;" vertex="1" parent="1">
          <mxGeometry x="720" y="30" width="150" height="150" as="geometry" />
        </mxCell>
        <mxCell id="k_RupyosA587b6uRsEtS-4" value="&lt;font style=&quot;font-size: 16px;&quot;&gt;Hiker info to admin&lt;/font&gt;" style="shape=ellipse;html=1;dashed=0;whiteSpace=wrap;perimeter=ellipsePerimeter;" vertex="1" parent="1">
          <mxGeometry x="720" y="275" width="150" height="150" as="geometry" />
        </mxCell>
        <mxCell id="k_RupyosA587b6uRsEtS-5" value="Search hike" style="shape=ellipse;html=1;dashed=0;whiteSpace=wrap;perimeter=ellipsePerimeter;" vertex="1" parent="1">
          <mxGeometry x="560" y="570" width="100" height="100" as="geometry" />
        </mxCell>
        <mxCell id="k_RupyosA587b6uRsEtS-6" value="" style="endArrow=classic;html=1;rounded=0;exitX=1.016;exitY=0.6;exitDx=0;exitDy=0;exitPerimeter=0;entryX=0;entryY=0.5;entryDx=0;entryDy=0;" edge="1" parent="1" source="k_RupyosA587b6uRsEtS-2" target="k_RupyosA587b6uRsEtS-1">
          <mxGeometry width="50" height="50" relative="1" as="geometry">
            <mxPoint x="340" y="355" as="sourcePoint" />
            <mxPoint x="430" y="340" as="targetPoint" />
          </mxGeometry>
        </mxCell>
        <mxCell id="k_RupyosA587b6uRsEtS-7" value="" style="endArrow=classic;html=1;rounded=0;exitX=0.5;exitY=0;exitDx=0;exitDy=0;entryX=0.635;entryY=0.988;entryDx=0;entryDy=0;entryPerimeter=0;" edge="1" parent="1">
          <mxGeometry width="50" height="50" relative="1" as="geometry">
            <mxPoint x="602.05" y="570" as="sourcePoint" />
            <mxPoint x="540" y="422.96000000000004" as="targetPoint" />
          </mxGeometry>
        </mxCell>
        <mxCell id="k_RupyosA587b6uRsEtS-8" value="" style="endArrow=classic;html=1;rounded=0;exitX=0.5;exitY=1;exitDx=0;exitDy=0;" edge="1" parent="1">
          <mxGeometry width="50" height="50" relative="1" as="geometry">
            <mxPoint x="205" y="370" as="sourcePoint" />
            <mxPoint x="560" y="620" as="targetPoint" />
          </mxGeometry>
        </mxCell>
      </root>
    </mxGraphModel>
  </diagram>
</mxfile>
